<?xml version="1.0" encoding="iso-8859-1"?>
<!-- Generator: Adobe Illustrator 21.0.0, SVG Export Plug-In . SVG Version: 6.00 Build 0)  -->
<svg xmlns="http://www.w3.org/2000/svg" xmlns:xlink="http://www.w3.org/1999/xlink" version="1.1" id="Capa_1" x="0px" y="0px" viewBox="0 0 507.775 507.775" style="enable-background:new 0 0 507.775 507.775;" xml:space="preserve" width="512" height="512">
<g>
	<g>
		
			<ellipse transform="matrix(0.0026 -1 1 0.0026 -208.8293 714.7164)" style="fill:#D0CFD1;" cx="253.888" cy="462.049" rx="38.225" ry="153.32"/>
	</g>
	<g>
		<path style="fill:#646464;" d="M253.99,423.824c-4.431-0.012-8.814,0.026-13.149,0.107c80.08,1.478,143.42,18.237,143.366,38.522    c-0.054,20.006-61.749,36.257-140.272,37.713c3.258,0.06,6.54,0.098,9.851,0.107c84.676,0.223,153.365-16.709,153.422-37.82    S338.666,424.047,253.99,423.824z"/>
	</g>
	<g>
		<path style="fill:#4890E3;" d="M422.942,176.554c0,179.671-169.055,280.181-169.055,280.181S84.833,342.448,84.833,176.554    C84.833,83.188,160.521,7.5,253.888,7.5S422.942,83.188,422.942,176.554z"/>
	</g>
	<g>
		<path style="fill:#2970D6;" d="M253.888,7.5c-3.866,0-7.699,0.142-11.5,0.397c88.001,5.913,155.554,79.157,155.554,168.657    c0,150.267-116.248,245.162-154.952,272.198c6.845,5.243,10.898,7.983,10.898,7.983s169.054-100.511,169.054-280.181    C422.942,83.188,347.254,7.5,253.888,7.5z"/>
	</g>
	<g>
		<circle style="fill:#FFF4F1;" cx="253.888" cy="173.425" r="65.825"/>
	</g>
	<g>
		<path style="fill:#ECEDEF;" d="M253.888,107.601c-3.925,0-7.764,0.363-11.5,1.022c30.868,5.442,54.324,32.374,54.324,64.803    c0,32.429-23.457,59.36-54.324,64.803c3.736,0.659,7.575,1.022,11.5,1.022c36.354,0,65.824-29.471,65.824-65.825    C319.712,137.071,290.241,107.601,253.888,107.601z"/>
	</g>
	<g>
		<path d="M314.077,419.512c9.586-8.855,19.749-19.029,29.946-30.51c25.034-28.187,44.995-58.385,59.327-89.754    c17.978-39.348,27.093-80.628,27.093-122.694C430.442,79.202,351.24,0,253.888,0S77.333,79.202,77.333,176.554    c0,39.343,9.311,79.084,27.672,118.12c1.763,3.748,6.231,5.357,9.979,3.594c3.748-1.763,5.357-6.231,3.594-9.979    c-17.416-37.023-26.246-74.616-26.246-111.735C92.333,87.473,164.806,15,253.888,15c89.081,0,161.555,72.473,161.555,161.554    c0,39.808-8.62,78.905-25.62,116.205c-13.66,29.971-32.737,58.882-56.702,85.929c-33.396,37.69-67.203,61.309-78.835,68.917    c-16.312-12.7-78.497-63.53-120.778-131.402c-2.189-3.516-6.816-4.59-10.331-2.4c-3.516,2.19-4.591,6.815-2.4,10.331    c23.772,38.161,53.065,70.667,77.706,94.604c-26.425,2.466-50.096,6.754-67.778,12.357c-24.94,7.902-37.603,18.173-37.636,30.528    c-0.039,14.394,16.952,25.982,50.5,34.44c29.515,7.441,68.65,11.6,110.197,11.709c0.563,0.001,1.121,0.002,1.683,0.002    c40.918,0,79.422-3.943,108.576-11.13c33.593-8.281,50.645-19.778,50.684-34.173C414.781,434.435,350.198,423.454,314.077,419.512    z M360.434,482.082c-28.4,7.001-66.244,10.803-106.628,10.692c-40.359-0.106-78.207-4.103-106.569-11.254    c-32.153-8.106-39.175-17.081-39.167-19.854c0.02-7.501,31.826-24.169,105.165-29.064c20.233,18.39,34.864,29.191,36.226,30.188    c1.313,0.961,2.869,1.447,4.429,1.447c1.322,0,2.648-0.349,3.833-1.053c1.107-0.658,17.998-10.804,40.923-30.068    c77.1,6.115,101.079,23.595,101.064,29.319C399.699,465.207,392.63,474.145,360.434,482.082z"/>
		<path d="M253.888,115.101c27.042,0,50.356,18.329,56.696,44.573c0.972,4.026,5.023,6.502,9.051,5.529    c4.026-0.973,6.502-5.025,5.529-9.052c-7.972-33.002-37.282-56.051-71.276-56.051c-40.431,0-73.325,32.893-73.325,73.325    c0,40.431,32.894,73.324,73.325,73.324c33.338,0,62.509-22.499,70.939-54.713c1.049-4.007-1.35-8.106-5.357-9.154    c-4.009-1.05-8.106,1.349-9.154,5.357c-6.704,25.618-29.908,43.51-56.428,43.51c-32.16,0-58.325-26.164-58.325-58.324    C195.563,141.265,221.728,115.101,253.888,115.101z"/>
	</g>
</g>















</svg>
